<svg version="1.1" id="Layer_1" xmlns="http://www.w3.org/2000/svg" xmlns:xlink="http://www.w3.org/1999/xlink" x="0px" y="0px"
	 width="100%" viewBox="0 0 624 596" enable-background="new 0 0 624 596" xml:space="preserve">
<path fill="#FFFFFF" opacity="1.000000" stroke="none" 
	d="
M386.000000,597.000000 
	C257.333344,597.000000 129.166672,597.000000 1.000000,597.000000 
	C1.000000,398.333344 1.000000,199.666672 1.000000,1.000000 
	C209.000000,1.000000 417.000000,1.000000 625.000000,1.000000 
	C625.000000,199.666672 625.000000,398.333344 625.000000,597.000000 
	C545.500000,597.000000 466.000000,597.000000 386.000000,597.000000 
M209.548401,553.915588 
	C257.166260,572.744690 306.315887,577.940063 356.638184,568.948547 
	C432.896576,555.322693 493.385986,516.249451 536.845520,452.305939 
	C579.337280,389.786377 593.108215,320.242920 578.315308,246.414581 
	C560.523438,157.618866 509.310272,92.758339 428.396393,52.692772 
	C372.262421,24.897306 312.541351,18.828732 251.235916,32.108929 
	C194.321457,44.437939 146.069336,72.555084 107.162903,115.641312 
	C69.043304,157.856171 45.706169,207.354706 38.699959,264.231354 
	C33.203457,308.852142 37.158653,352.514252 53.298004,394.447357 
	C82.233467,469.627167 134.163803,522.876038 209.548401,553.915588 
z"/>
<path fill="#010101" opacity="1.000000" stroke="none" 
	d="
M209.183105,553.789795 
	C134.163803,522.876038 82.233467,469.627167 53.298004,394.447357 
	C37.158653,352.514252 33.203457,308.852142 38.699959,264.231354 
	C45.706169,207.354706 69.043304,157.856171 107.162903,115.641312 
	C146.069336,72.555084 194.321457,44.437939 251.235916,32.108929 
	C312.541351,18.828732 372.262421,24.897306 428.396393,52.692772 
	C509.310272,92.758339 560.523438,157.618866 578.315308,246.414581 
	C593.108215,320.242920 579.337280,389.786377 536.845520,452.305939 
	C493.385986,516.249451 432.896576,555.322693 356.638184,568.948547 
	C306.315887,577.940063 257.166260,572.744690 209.183105,553.789795 
M282.205566,200.486267 
	C281.508942,202.199585 280.812317,203.912903 279.891541,206.177551 
	C284.904083,206.177551 288.598663,205.885651 292.211304,206.302994 
	C293.968628,206.506027 296.317322,207.605225 297.136963,209.026291 
	C315.979645,241.693802 334.680206,274.443634 353.240845,307.272247 
	C354.043762,308.692352 353.955139,311.418427 353.113068,312.847565 
	C337.927429,338.620605 322.514679,364.259766 307.312012,390.022858 
	C305.893646,392.426422 304.408783,393.139465 301.814484,393.044952 
	C296.858398,392.864349 291.891052,392.992493 286.710205,392.992493 
	C286.710205,394.971802 286.710205,396.550323 286.710205,398.308289 
	C306.123383,398.308289 325.391937,398.308289 344.820221,398.308289 
	C344.820221,396.510406 344.820221,394.923553 344.820221,392.911835 
	C335.075500,392.911835 325.507507,392.911835 315.089691,392.911835 
	C330.214600,367.874969 344.919952,343.532623 360.005829,318.560333 
	C374.297729,343.775269 388.139404,368.195892 402.372742,393.307526 
	C395.493713,393.307526 389.568512,393.307526 383.394806,393.307526 
	C383.539246,395.263672 383.654541,396.825287 383.766144,398.336487 
	C415.976624,398.336487 447.771271,398.336487 479.798279,398.336487 
	C479.798279,396.573303 479.798279,394.990204 479.798279,392.992462 
	C475.475281,392.992462 471.154602,393.229675 466.883881,392.871399 
	C465.258667,392.735077 463.068024,391.629364 462.284729,390.292023 
	C441.290497,354.448151 420.446289,318.516418 399.512146,282.488464 
	C415.106354,257.713989 430.663910,232.942566 446.353973,208.255310 
	C447.044342,207.169022 448.922638,206.332245 450.287964,206.270447 
	C455.404785,206.038849 460.538361,206.177719 465.830688,206.177719 
	C465.830688,204.153900 465.830688,202.547470 465.830688,200.710800 
	C446.605591,200.710800 427.502228,200.710800 408.317078,200.710800 
	C408.317078,202.593246 408.317078,204.297226 408.317078,206.409546 
	C418.003082,206.409546 427.369751,206.409546 437.394379,206.409546 
	C423.042145,229.403412 409.065460,251.795654 394.738495,274.749023 
	C381.925476,251.627350 369.456512,229.126572 356.623260,205.968414 
	C363.596771,205.968414 369.545105,205.968414 375.656982,205.968414 
	C375.656982,204.082260 375.656982,202.491669 375.656982,200.481339 
	C344.675842,200.481339 313.876801,200.481339 282.205566,200.486267 
M214.393936,197.943939 
	C209.230774,197.970169 204.043488,197.682785 198.908661,198.077621 
	C178.056671,199.681076 161.637161,208.805099 150.006683,226.572754 
	C141.177216,240.061417 139.537476,254.886749 141.311768,270.178375 
	C143.148865,286.011169 150.057327,299.215515 163.743607,308.529938 
	C172.677902,314.610321 182.367218,318.657593 192.513947,322.030365 
	C206.074402,326.537872 219.668304,331.011292 232.964630,336.222015 
	C240.969727,339.359131 247.809616,344.578644 250.974213,353.187439 
	C258.587555,373.898315 245.888351,392.714142 223.153488,394.873260 
	C204.025635,396.689789 188.851151,388.871643 175.611435,376.066986 
	C163.797989,364.641754 154.144119,351.578552 146.128189,337.237366 
	C145.167892,335.519318 142.784821,334.596527 141.061203,333.305115 
	C140.639297,333.715607 140.217392,334.126129 139.795471,334.536621 
	C140.774734,356.606598 141.753983,378.676544 142.814224,402.571747 
	C145.320496,400.496918 147.181580,399.629272 147.969421,398.178741 
	C150.401199,393.701416 153.716095,392.098541 158.697678,393.389709 
	C162.390579,394.346863 166.213272,394.790466 169.951996,395.585724 
	C186.761871,399.161316 203.659012,402.050385 220.936676,400.859039 
	C234.636658,399.914337 247.515488,396.173370 258.487366,387.596741 
	C276.026886,373.886230 283.494965,355.370453 283.459137,333.483368 
	C283.419403,309.226929 273.685333,290.395905 251.411057,279.733948 
	C241.130997,274.813202 230.025269,271.467224 219.069458,268.148132 
	C206.643448,264.383698 194.270630,260.812134 182.725159,254.559555 
	C166.184525,245.601822 167.115784,225.277863 175.934891,214.670563 
	C185.909439,202.673508 215.071960,198.375565 232.169800,212.927948 
	C245.862381,224.582047 255.748322,239.017242 264.824158,254.229095 
	C265.897797,256.028625 268.099274,257.155243 269.777924,258.593781 
	C270.266907,258.207703 270.755890,257.821625 271.244873,257.435547 
	C270.580627,238.534912 269.916412,219.634262 269.209991,199.533768 
	C267.197540,200.875565 265.823303,201.376053 265.091583,202.356216 
	C262.727692,205.522720 259.699219,206.653839 255.917221,205.939072 
	C253.631424,205.507080 251.377838,204.905945 249.093918,204.462524 
	C237.852158,202.279968 226.605103,200.124741 214.393936,197.943939 
z"/>
<path fill="#FBFBFB" opacity="1.000000" stroke="none" 
	d="
M282.641663,200.483795 
	C313.876801,200.481339 344.675842,200.481339 375.656982,200.481339 
	C375.656982,202.491669 375.656982,204.082260 375.656982,205.968414 
	C369.545105,205.968414 363.596771,205.968414 356.623260,205.968414 
	C369.456512,229.126572 381.925476,251.627350 394.738495,274.749023 
	C409.065460,251.795654 423.042145,229.403412 437.394379,206.409546 
	C427.369751,206.409546 418.003082,206.409546 408.317078,206.409546 
	C408.317078,204.297226 408.317078,202.593246 408.317078,200.710800 
	C427.502228,200.710800 446.605591,200.710800 465.830688,200.710800 
	C465.830688,202.547470 465.830688,204.153900 465.830688,206.177719 
	C460.538361,206.177719 455.404785,206.038849 450.287964,206.270447 
	C448.922638,206.332245 447.044342,207.169022 446.353973,208.255310 
	C430.663910,232.942566 415.106354,257.713989 399.512146,282.488464 
	C420.446289,318.516418 441.290497,354.448151 462.284729,390.292023 
	C463.068024,391.629364 465.258667,392.735077 466.883881,392.871399 
	C471.154602,393.229675 475.475281,392.992462 479.798279,392.992462 
	C479.798279,394.990204 479.798279,396.573303 479.798279,398.336487 
	C447.771271,398.336487 415.976624,398.336487 383.766144,398.336487 
	C383.654541,396.825287 383.539246,395.263672 383.394806,393.307526 
	C389.568512,393.307526 395.493713,393.307526 402.372742,393.307526 
	C388.139404,368.195892 374.297729,343.775269 360.005829,318.560333 
	C344.919952,343.532623 330.214600,367.874969 315.089691,392.911835 
	C325.507507,392.911835 335.075500,392.911835 344.820221,392.911835 
	C344.820221,394.923553 344.820221,396.510406 344.820221,398.308289 
	C325.391937,398.308289 306.123383,398.308289 286.710205,398.308289 
	C286.710205,396.550323 286.710205,394.971802 286.710205,392.992493 
	C291.891052,392.992493 296.858398,392.864349 301.814484,393.044952 
	C304.408783,393.139465 305.893646,392.426422 307.312012,390.022858 
	C322.514679,364.259766 337.927429,338.620605 353.113068,312.847565 
	C353.955139,311.418427 354.043762,308.692352 353.240845,307.272247 
	C334.680206,274.443634 315.979645,241.693802 297.136963,209.026291 
	C296.317322,207.605225 293.968628,206.506027 292.211304,206.302994 
	C288.598663,205.885651 284.904083,206.177551 279.891541,206.177551 
	C280.812317,203.912903 281.508942,202.199585 282.641663,200.483795 
z"/>
<path fill="#FCFCFC" opacity="1.000000" stroke="none" 
	d="
M214.876923,197.951904 
	C226.605103,200.124741 237.852158,202.279968 249.093918,204.462524 
	C251.377838,204.905945 253.631424,205.507080 255.917221,205.939072 
	C259.699219,206.653839 262.727692,205.522720 265.091583,202.356216 
	C265.823303,201.376053 267.197540,200.875565 269.209991,199.533768 
	C269.916412,219.634262 270.580627,238.534912 271.244873,257.435547 
	C270.755890,257.821625 270.266907,258.207703 269.777924,258.593781 
	C268.099274,257.155243 265.897797,256.028625 264.824158,254.229095 
	C255.748322,239.017242 245.862381,224.582047 232.169800,212.927948 
	C215.071960,198.375565 185.909439,202.673508 175.934891,214.670563 
	C167.115784,225.277863 166.184525,245.601822 182.725159,254.559555 
	C194.270630,260.812134 206.643448,264.383698 219.069458,268.148132 
	C230.025269,271.467224 241.130997,274.813202 251.411057,279.733948 
	C273.685333,290.395905 283.419403,309.226929 283.459137,333.483368 
	C283.494965,355.370453 276.026886,373.886230 258.487366,387.596741 
	C247.515488,396.173370 234.636658,399.914337 220.936676,400.859039 
	C203.659012,402.050385 186.761871,399.161316 169.951996,395.585724 
	C166.213272,394.790466 162.390579,394.346863 158.697678,393.389709 
	C153.716095,392.098541 150.401199,393.701416 147.969421,398.178741 
	C147.181580,399.629272 145.320496,400.496918 142.814224,402.571747 
	C141.753983,378.676544 140.774734,356.606598 139.795471,334.536621 
	C140.217392,334.126129 140.639297,333.715607 141.061203,333.305115 
	C142.784821,334.596527 145.167892,335.519318 146.128189,337.237366 
	C154.144119,351.578552 163.797989,364.641754 175.611435,376.066986 
	C188.851151,388.871643 204.025635,396.689789 223.153488,394.873260 
	C245.888351,392.714142 258.587555,373.898315 250.974213,353.187439 
	C247.809616,344.578644 240.969727,339.359131 232.964630,336.222015 
	C219.668304,331.011292 206.074402,326.537872 192.513947,322.030365 
	C182.367218,318.657593 172.677902,314.610321 163.743607,308.529938 
	C150.057327,299.215515 143.148865,286.011169 141.311768,270.178375 
	C139.537476,254.886749 141.177216,240.061417 150.006683,226.572754 
	C161.637161,208.805099 178.056671,199.681076 198.908661,198.077621 
	C204.043488,197.682785 209.230774,197.970169 214.876923,197.951904 
z"/>
</svg>